<?xml version="1.0" encoding="UTF-8"?>
<svg id="_图层_1" data-name=" 图层 1" xmlns="http://www.w3.org/2000/svg" version="1.1" viewBox="0 0 256 256">
  <defs>
    <style>
      .cls-1 {
        fill: #000;
        stroke-width: 0px;
      }
    </style>
  </defs>
  <path class="cls-1" d="M215.78,114.75s-.1-.07-.14-.1c.52-5.92,2.75-43.85-22.77-69.42-25.25-25.31-66.42-23.54-82.97-21.61.39-1.82,1.17-4.06,2.74-5.83.13-.15.02-.37-.17-.34h0c-1.59.23-6.38,1.43-9.85,7.15-.41-.63-2.84-3.97-8.81-4.39-.42-.03-.63.5-.31.77.78.66,1.82,1.72,2.59,3.11-31.94-1.68-48.81,17.03-61.79,57.15-12.16,37.61,13.46,63.89,19.85,69.71.3.27.75-.05.59-.42-4.41-10.08-3.13-28.74-3.13-28.74.44,3.77,1.75,8.79,2.87,12.65.13,5.7.23,10.69.28,13.79.01.6,1.72,60.41,26.7,71.86,4.81,2.21,9.3,4.65,13.63,7,9.92,5.38,18.93,10.28,29.14,11.08h0c5,.4,10.27-.19,16.08-2.17,2.52-.86,4.91-1.66,7.19-2.42,14.21-4.75,24.47-8.18,36.46-16.68,12.17-8.62,15.67-38.1,16.64-51.5,4.29-1.89,20.78-10.06,24.12-25.16,2.13-9.64-1.55-20.12-8.94-25.49ZM58.03,143.81c-.05-2.44-.11-5.33-.18-8.46,1.91-10.1,11.18-17.37,21.66-16.55,11.23.88,19.64,10.74,18.76,21.96-.88,11.23-10.74,19.64-21.96,18.76-9.08-.71-16.31-7.29-18.28-15.71ZM79.64,117.11c-9.55-.75-18.18,4.72-21.91,12.99-.09-3.81-.18-7.79-.27-11.64,5.79-28.34,25.83-51.04,27.38-52.76.06-.08.15-.11.25-.11,28.6-.4,52.63,24.2,62.8,36.45-.55-.05-1.13-.1-1.73-.12-12.41-.4-26.54,7.14-30.2,9.21-.52.29-.73.92-.49,1.47h-.01s1.13,2.58,1.13,2.58c.15.36.47.58.83.66-1.78,2.21-3.14,4.78-3.96,7.6-4.65-1.81-8.71-2.03-12.05-.63-2.64,1.11-4.22,2.96-5.04,4.23-3.63-5.52-9.67-9.37-16.74-9.93ZM114.34,128.04c.4-5.11,2.67-9.63,6.08-12.96,8.85-2.63,17.03-3.5,23.62-3.6,7.09,3.66,11.68,11.32,11.02,19.76-.88,11.23-10.74,19.64-21.96,18.76-11.23-.88-19.64-10.73-18.76-21.96ZM147.32,111.49c5.17.12,9.03.67,11,1.02.78.14,1.47-.53,1.35-1.31-.36-2.34-1.89-6.65-8.01-8.46-1.79-5.51-4.65-11.4-5.8-13.7-.17-.32.18-.69.5-.53,11.08,5.38,19.56,21.07,23.35,29.19l-14.31,4.16c-1.58-4.2-4.42-7.83-8.08-10.39ZM169.67,102.28c-.09-.38.39-.62.65-.33,3.3,3.6,6.32,9.78,7.88,13.29l-6.18,1.8c-.33-5.7-1.72-12.08-2.35-14.76ZM183.61,103.28c.07-.39.62-.42.73-.04.63,2.16,1.04,5.89,1.31,9.84l-4.82,1.4c1.48-4.08,2.39-8.84,2.78-11.2ZM221.41,139.5c-3.38,15.26-22.86,23.09-23.06,23.17-.61.24-1.03.81-1.07,1.46-.64,9.65-3.66,41.77-15.29,50.01-11.59,8.21-21.65,11.57-35.58,16.23-2.29.77-4.68,1.57-7.21,2.43-16.28,5.56-28.44-1.04-42.52-8.68-4.38-2.38-8.91-4.84-13.84-7.1-19.03-8.73-24.28-52.17-24.71-67.98,3.36,6.7,10.04,11.53,18.04,12.16,12.16.95,22.82-8.16,23.78-20.31.34-4.39-.63-8.58-2.58-12.19.44-.84,1.84-3.15,4.73-4.35,2.98-1.24,6.67-.97,10.97.74-.19.92-.33,1.85-.41,2.81-.95,12.16,8.15,22.82,20.31,23.78,12.16.95,22.82-8.15,23.78-20.31.21-2.74-.09-5.4-.81-7.89l14.48-4.21c.37.82.67,1.52.9,2.07.16.37.69.26.72-.14.05-.77.06-1.58.05-2.42l6.79-1.98c.05.11.1.24.14.33.12.3.54.32.68.03.11-.23.22-.46.32-.7l5.73-1.67c.41,7.03.41,14.17.41,14.17,0,0,4.96-.87,6.55-2.63.12-.14.18-5.48.19-8.29.3,0,.61-.06.88-.23,7.3-4.29,14.41-4.42,20-.36,6.34,4.61,9.48,13.67,7.63,22.03Z"/>
  <path class="cls-1" d="M87.98,111.54c-4.01-.7-18.8-3.15-22.79-1.69-3.31,1.21-5.02,6.08-5.73,8.74-.19.73.52,1.38,1.23,1.12,4.07-1.47,15.14-4.85,25.99-2.79.49.09.97-.2,1.1-.68l.93-3.52h.02c.14-.54-.2-1.09-.75-1.18Z"/>
  <path class="cls-1" d="M99.33,171.48c1.59,1,3.39,1.46,5.18,1.6h0c3.82.31,7.6-.84,9.18-1.32l.27-.08c.44-.05.86-.27,1.15-.64l.77-.98-.7-1.02c-.71-1.04-1.81-.71-2.47-.51-5.25,1.61-9.15,1.64-11.58.11-1.57-1-2.52-2.67-2.89-5.11-.38-2.55.1-4.54,1.49-6.09,3.61-4.03,12.01-3.74,12.09-3.74.93.03,1.72-.69,1.76-1.62.03-.93-.63-1.79-1.62-1.76-.41-.02-10.06-.36-14.74,4.85-2.08,2.31-2.86,5.29-2.32,8.85.52,3.42,2.01,5.93,4.43,7.46Z"/>
  <path class="cls-1" d="M206.03,130.6c-1.71-.33-3.42.82-3.75,2.57l-1.81,9.7c-.33,1.75.83,3.43,2.57,3.75.11.02.23.04.34.04,1.62.13,3.11-.98,3.41-2.61l1.81-9.7c.33-1.75-.83-3.43-2.57-3.75Z"/>
  <path class="cls-1" d="M81.47,147.09c2.2-.36,3.43-3.99,2.76-8.11-.68-4.12-3.01-7.16-5.21-6.79-2.2.36-3.44,3.99-2.76,8.11.68,4.11,3.01,7.16,5.21,6.79ZM77.26,136.9c.56.05.98.53.93,1.09s-.53.98-1.09.93c-.56-.04-.98-.53-.93-1.09.05-.56.53-.98,1.09-.93Z"/>
  <path class="cls-1" d="M137.34,137.21c2.2-.36,3.43-3.99,2.76-8.11-.68-4.12-3.01-7.16-5.21-6.79-2.2.36-3.44,3.99-2.76,8.11.68,4.11,3.01,7.16,5.21,6.79ZM133.12,127.01c.56.05.98.53.93,1.09-.05.56-.53.98-1.09.93-.56-.04-.98-.53-.93-1.09s.53-.98,1.09-.93Z"/>
  <path class="cls-1" d="M150.38,177.82s0,0,0,0c0,0-.01,0-.02,0h.02Z"/>
  <path class="cls-1" d="M148.31,172.65c-1.7-.6-3.46-.46-3.65-.44-.93.08-1.6.9-1.52,1.83.04.42.24.79.52,1.06-5.21,2.38-14.9,6.69-23.84,10.08-.94.36-1.91.7-2.89,1.02-4.1,1.27-8.87,2.49-13.04,3.47-8.06,1.73-14.68,2.53-14.79,2.54-.93.11-1.59.95-1.48,1.88.09.81.75,1.42,1.54,1.48h0c.11.01.22,0,.33-.01.19-.02,1.45-.18,3.44-.47,1.33,1.48,6.32,6.94,9.07,9.28,5.13,4.35,9.8,7.2,15.7,7.66h0c2.98.24,6.27-.13,10.08-1.23,17.63-5.06,20.82-27.25,21.38-33.62.05.05.1.1.13.13.3.31.68.48,1.08.51.46.03.94-.12,1.29-.47.67-.64.69-1.71.05-2.38-.17-.18-1.68-1.71-3.41-2.32ZM126.85,207.55c-8.13,2.33-13.27,1.09-18.73-2.7,1.59-1.31,5.65-3.98,14.5-6.53,8.76-2.51,14.73-2.43,17.56-2.14-2.83,5.07-7.05,9.57-13.33,11.37ZM141.77,192.97c-2.61-.42-9.44-.95-20.08,2.1-10.27,2.95-14.67,6.14-16.33,7.69-.38-.31-.77-.63-1.17-.97-1.88-1.61-5.03-4.93-7.08-7.15h0c1.74-.37,4.14-.89,6.82-1.52,4.61-.97,9.76-2.25,14.54-3.87.59-.19,1.18-.38,1.74-.57,7.72-2.61,20.04-8.07,25.43-10.51-.4,3.33-1.41,9.15-3.88,14.8Z"/>
</svg>